<svg xmlns="http://www.w3.org/2000/svg" viewBox="0 0 512 512" fill="none" aria-hidden="true">
  <defs>
    <mask id="m-cyber"><rect width="512" height="512" fill="#fff"/><circle cx="256" cy="256" r="176" fill="#000"/></mask>
    <linearGradient id="cy" x1="0%" y1="100%" x2="100%" y2="0%">
      <stop offset="0%" stop-color="#06b6d4"/><stop offset="100%" stop-color="#8b5cf6"/>
    </linearGradient>
  </defs>
  <g mask="url(#m-cyber)">
    <g stroke="url(#cy)" stroke-width="3" fill="none" opacity=".92">
      <path d="M48 256h56l28-48 36 88 44-132 40 168 28-64h56"/>
      <path d="M256 48v56l-48 28 88 36-132 44 168 40-64 28v56"/>
      <path d="M72 120l48 48M392 120l-48 48M72 392l48-48M392 392l-48-48"/>
    </g>
    <circle cx="256" cy="256" r="6" fill="#22d3ee"/>
    <circle cx="120" cy="112" r="5" fill="#a855f7"><animate attributeName="opacity" values=".35;1;.35" dur="1.4s" repeatCount="indefinite"/></circle>
    <circle cx="392" cy="400" r="5" fill="#a855f7"><animate attributeName="opacity" values="1;.35;1" dur="1.4s" repeatCount="indefinite"/></circle>
    <rect x="72" y="72" width="368" height="368" rx="12" stroke="#06b6d4" stroke-width="2" opacity=".22"/>
    <circle cx="256" cy="256" r="188" stroke="#8b5cf6" stroke-width="4" stroke-dasharray="22 16" fill="none">
      <animateTransform attributeName="transform" type="rotate" from="0 256 256" to="360 256 256" dur="22s" repeatCount="indefinite"/>
    </circle>
  </g>
</svg>
