<svg xmlns="http://www.w3.org/2000/svg" viewBox="0 0 512 512" fill="none" aria-hidden="true">
  <defs>
    <mask id="m-flame"><rect width="512" height="512" fill="#fff"/><circle cx="256" cy="256" r="176" fill="#000"/></mask>
    <linearGradient id="fl" x1="50%" y1="100%" x2="50%" y2="0%">
      <stop offset="0%" stop-color="#991b1b"/><stop offset="40%" stop-color="#ea580c"/><stop offset="100%" stop-color="#fcd34d"/>
    </linearGradient>
    <filter id="fg"><feGaussianBlur stdDeviation="2"/><feMerge><feMergeNode/><feMergeNode in="SourceGraphic"/></feMerge></filter>
  </defs>
  <g mask="url(#m-flame)" filter="url(#fg)">
    <path fill="url(#fl)" opacity=".88" d="M256 20c-28 56-12 84 0 128 10-40 36-68 0-128zm-88 36c18 60 52 78 72 128-44-44-80-80-72-128zm176 0c-18 60-52 78-72 128 44-44 80-80 72-128zM64 256c60 18 78 52 128 72-44-44-80-80-128-72zm384 0c-60 18-78 52-128 72 44-44 80-80 128-72zM168 420c44-44 80-80 88-128 8 52-44 88-88 128zm176 0c-44-44-80-80-88-128-8 52 44 88 88 128z"/>
    <circle cx="256" cy="256" r="182" stroke="#f97316" stroke-width="4" fill="none" opacity=".75"/>
    <circle cx="256" cy="256" r="188" stroke="#fcd34d" stroke-width="1.5" opacity=".4">
      <animate attributeName="opacity" values=".25;.55;.25" dur="1.8s" repeatCount="indefinite"/>
    </circle>
  </g>
</svg>
