<svg xmlns="http://www.w3.org/2000/svg" viewBox="0 0 512 512" fill="none" aria-hidden="true">
  <defs>
    <mask id="m-heart"><rect width="512" height="512" fill="#fff"/><circle cx="256" cy="256" r="176" fill="#000"/></mask>
    <linearGradient id="hw" x1="0%" y1="0%" x2="100%" y2="100%">
      <stop offset="0%" stop-color="#fda4af"/><stop offset="100%" stop-color="#be123c"/>
    </linearGradient>
  </defs>
  <g mask="url(#m-heart)">
    <g fill="url(#hw)" opacity=".9" transform="translate(256 256)">
      <path d="M0-198c-10 15-30 20-30 40 0 25 30 45 30 45s30-20 30-45c0-20-20-25-30-40z" transform="rotate(0) scale(.42)"/>
      <path d="M0-198c-10 15-30 20-30 40 0 25 30 45 30 45s30-20 30-45c0-20-20-25-30-40z" transform="rotate(45) scale(.42)"/>
      <path d="M0-198c-10 15-30 20-30 40 0 25 30 45 30 45s30-20 30-45c0-20-20-25-30-40z" transform="rotate(90) scale(.42)"/>
      <path d="M0-198c-10 15-30 20-30 40 0 25 30 45 30 45s30-20 30-45c0-20-20-25-30-40z" transform="rotate(135) scale(.42)"/>
      <path d="M0-198c-10 15-30 20-30 40 0 25 30 45 30 45s30-20 30-45c0-20-20-25-30-40z" transform="rotate(180) scale(.42)"/>
      <path d="M0-198c-10 15-30 20-30 40 0 25 30 45 30 45s30-20 30-45c0-20-20-25-30-40z" transform="rotate(225) scale(.42)"/>
      <path d="M0-198c-10 15-30 20-30 40 0 25 30 45 30 45s30-20 30-45c0-20-20-25-30-40z" transform="rotate(270) scale(.42)"/>
      <path d="M0-198c-10 15-30 20-30 40 0 25 30 45 30 45s30-20 30-45c0-20-20-25-30-40z" transform="rotate(315) scale(.42)"/>
    </g>
    <circle cx="256" cy="256" r="188" stroke="#fb7185" stroke-width="3.5" fill="none" opacity=".65"/>
    <circle cx="256" cy="256" r="194" stroke="#fecdd3" stroke-width="1.5" opacity=".35"/>
  </g>
</svg>
