<svg xmlns="http://www.w3.org/2000/svg" viewBox="0 0 512 512" fill="none" aria-hidden="true">
  <defs>
    <mask id="m-rose"><rect width="512" height="512" fill="#fff"/><circle cx="256" cy="256" r="176" fill="#000"/></mask>
    <linearGradient id="rs" x1="0%" y1="0%" x2="100%" y2="100%">
      <stop offset="0%" stop-color="#881337"/><stop offset="100%" stop-color="#fb7185"/>
    </linearGradient>
  </defs>
  <g mask="url(#m-rose)">
    <path stroke="#14532d" stroke-width="4" fill="none" opacity=".85" d="M256 48 Q160 120 96 220 Q180 180 256 220 Q332 180 416 220 Q352 120 256 48z"/>
    <path stroke="#166534" stroke-width="2" fill="none" opacity=".6" d="M256 220 Q200 280 160 360 M256 220 Q312 280 352 360"/>
    <path fill="url(#rs)" d="M168 108c10-8 22 6 14 18-8 4-18-6-14-18zm176 0c-10-8-22 6-14 18 8 4 18-6 14-18zM128 300c14 4 18 22 6 28-12-2-16-20-6-28zm256 0c-14 4-18 22-6 28 12-2 16-20 6-28z"/>
    <path fill="#fda4af" opacity=".75" d="M256 172c-18 14-6 36 0 52 6-16 18-38 0-52z"/>
    <circle cx="256" cy="256" r="176" stroke="#fb7185" stroke-width="4" fill="none"/>
    <circle cx="256" cy="256" r="180" stroke="#881337" stroke-width="1" opacity=".4"/>
  </g>
</svg>
